# xmcd
#
# Track frame offsets:
#	150
#	13916
#	30739
#	43786
#	59784
#	72514
#	98041
#	114042
#	123785
#
# Disc length: 1818 seconds
#
# Revision: 1
# Processed by: cddbd v1.5.2PL0 Copyright (c) Steve Scherf et al.
# Submitted via: audiograbber 1.83.01
#
DISCID=78071809
DTITLE=Brothers Unlimited - Who's For The Young
DYEAR=1970
DGENRE=Soul
TTITLE0=Who's For The Young?
TTITLE1=A Change Is Gonna Come
TTITLE2=Got To Get Over
TTITLE3=Hey Little Rich Boy
TTITLE4=Get Away
TTITLE5=Life, Dreams, Death
TTITLE6=Spoonful
TTITLE7=Take Me Back
TTITLE8=What We Need Is Harmony
EXTD=
EXTT0=
EXTT1=
EXTT2=
EXTT3=
EXTT4=
EXTT5=
EXTT6=
EXTT7=
EXTT8=
PLAYORDER=
